<svg width="189" height="81" viewBox="0 0 189 81" fill="none" xmlns="http://www.w3.org/2000/svg">
<path d="M65.1556 25.5507L40.0009 69.0276L14.9262 25.5046L65.1556 25.5507Z" stroke="white"/>
<path d="M73.8296 20.5678L40.0009 79.0368L6.27967 20.5058L73.8296 20.5678Z" stroke="white"/>
<path d="M96.7188 49.085H91.1729V53.6201H97.6152V55H89.4854V42.2031H97.5273V43.5918H91.1729V47.7051H96.7188V49.085ZM102.651 48.9619L104.761 45.4902H106.659L103.548 50.1924L106.756 55H104.875L102.678 51.4404L100.48 55H98.5908L101.799 50.1924L98.6875 45.4902H100.568L102.651 48.9619ZM110.597 43.1875V45.4902H112.372V46.7471H110.597V52.6445C110.597 53.0254 110.676 53.3125 110.834 53.5059C110.992 53.6934 111.262 53.7871 111.643 53.7871C111.83 53.7871 112.088 53.752 112.416 53.6816V55C111.988 55.1172 111.572 55.1758 111.168 55.1758C110.441 55.1758 109.894 54.9561 109.524 54.5166C109.155 54.0771 108.971 53.4531 108.971 52.6445V46.7471H107.239V45.4902H108.971V43.1875H110.597ZM118.876 46.9492C118.63 46.9082 118.363 46.8877 118.076 46.8877C117.01 46.8877 116.286 47.3418 115.905 48.25V55H114.279V45.4902H115.861L115.888 46.5889C116.421 45.7393 117.177 45.3145 118.155 45.3145C118.472 45.3145 118.712 45.3555 118.876 45.4375V46.9492ZM125.898 55C125.805 54.8125 125.729 54.4785 125.67 53.998C124.914 54.7832 124.012 55.1758 122.963 55.1758C122.025 55.1758 121.255 54.9121 120.651 54.3848C120.054 53.8516 119.755 53.1777 119.755 52.3633C119.755 51.373 120.13 50.6055 120.88 50.0605C121.636 49.5098 122.696 49.2344 124.062 49.2344H125.644V48.4873C125.644 47.9189 125.474 47.4678 125.134 47.1338C124.794 46.7939 124.293 46.624 123.631 46.624C123.051 46.624 122.564 46.7705 122.172 47.0635C121.779 47.3564 121.583 47.7109 121.583 48.127H119.948C119.948 47.6523 120.115 47.1953 120.449 46.7559C120.789 46.3105 121.246 45.959 121.82 45.7012C122.4 45.4434 123.036 45.3145 123.728 45.3145C124.823 45.3145 125.682 45.5898 126.303 46.1406C126.924 46.6855 127.246 47.4385 127.27 48.3994V52.7764C127.27 53.6494 127.381 54.3438 127.604 54.8594V55H125.898ZM123.2 53.7607C123.71 53.7607 124.193 53.6289 124.65 53.3652C125.107 53.1016 125.438 52.7588 125.644 52.3369V50.3857H124.369C122.377 50.3857 121.381 50.9688 121.381 52.1348C121.381 52.6445 121.551 53.043 121.891 53.3301C122.23 53.6172 122.667 53.7607 123.2 53.7607ZM134.538 55V42.2031H138.15C139.264 42.2031 140.248 42.4492 141.104 42.9414C141.959 43.4336 142.618 44.1338 143.081 45.042C143.55 45.9502 143.787 46.9932 143.793 48.1709V48.9883C143.793 50.1953 143.559 51.2529 143.09 52.1611C142.627 53.0693 141.962 53.7666 141.095 54.2529C140.233 54.7393 139.229 54.9883 138.08 55H134.538ZM136.226 43.5918V53.6201H138.001C139.302 53.6201 140.312 53.2158 141.033 52.4072C141.76 51.5986 142.123 50.4473 142.123 48.9531V48.2061C142.123 46.7529 141.78 45.625 141.095 44.8223C140.415 44.0137 139.448 43.6035 138.194 43.5918H136.226ZM150.042 55.1758C148.753 55.1758 147.704 54.7539 146.896 53.9102C146.087 53.0605 145.683 51.9268 145.683 50.5088V50.21C145.683 49.2666 145.861 48.4258 146.219 47.6875C146.582 46.9434 147.086 46.3633 147.73 45.9473C148.381 45.5254 149.084 45.3145 149.84 45.3145C151.076 45.3145 152.037 45.7217 152.723 46.5361C153.408 47.3506 153.751 48.5166 153.751 50.0342V50.7109H147.309C147.332 51.6484 147.604 52.4072 148.126 52.9873C148.653 53.5615 149.321 53.8486 150.13 53.8486C150.704 53.8486 151.19 53.7314 151.589 53.4971C151.987 53.2627 152.336 52.9521 152.635 52.5654L153.628 53.3389C152.831 54.5635 151.636 55.1758 150.042 55.1758ZM149.84 46.6504C149.184 46.6504 148.633 46.8906 148.188 47.3711C147.742 47.8457 147.467 48.5137 147.361 49.375H152.125V49.252C152.078 48.4258 151.855 47.7871 151.457 47.3359C151.059 46.8789 150.52 46.6504 149.84 46.6504ZM157.847 43.1875V45.4902H159.622V46.7471H157.847V52.6445C157.847 53.0254 157.926 53.3125 158.084 53.5059C158.242 53.6934 158.512 53.7871 158.893 53.7871C159.08 53.7871 159.338 53.752 159.666 53.6816V55C159.238 55.1172 158.822 55.1758 158.418 55.1758C157.691 55.1758 157.144 54.9561 156.774 54.5166C156.405 54.0771 156.221 53.4531 156.221 52.6445V46.7471H154.489V45.4902H156.221V43.1875H157.847ZM167.4 55C167.307 54.8125 167.23 54.4785 167.172 53.998C166.416 54.7832 165.514 55.1758 164.465 55.1758C163.527 55.1758 162.757 54.9121 162.153 54.3848C161.556 53.8516 161.257 53.1777 161.257 52.3633C161.257 51.373 161.632 50.6055 162.382 50.0605C163.138 49.5098 164.198 49.2344 165.563 49.2344H167.146V48.4873C167.146 47.9189 166.976 47.4678 166.636 47.1338C166.296 46.7939 165.795 46.624 165.133 46.624C164.553 46.624 164.066 46.7705 163.674 47.0635C163.281 47.3564 163.085 47.7109 163.085 48.127H161.45C161.45 47.6523 161.617 47.1953 161.951 46.7559C162.291 46.3105 162.748 45.959 163.322 45.7012C163.902 45.4434 164.538 45.3145 165.229 45.3145C166.325 45.3145 167.184 45.5898 167.805 46.1406C168.426 46.6855 168.748 47.4385 168.771 48.3994V52.7764C168.771 53.6494 168.883 54.3438 169.105 54.8594V55H167.4ZM164.702 53.7607C165.212 53.7607 165.695 53.6289 166.152 53.3652C166.609 53.1016 166.94 52.7588 167.146 52.3369V50.3857H165.871C163.879 50.3857 162.883 50.9688 162.883 52.1348C162.883 52.6445 163.053 53.043 163.393 53.3301C163.732 53.6172 164.169 53.7607 164.702 53.7607ZM173.087 55H171.461V45.4902H173.087V55ZM171.329 42.9678C171.329 42.7041 171.408 42.4814 171.566 42.2998C171.73 42.1182 171.971 42.0273 172.287 42.0273C172.604 42.0273 172.844 42.1182 173.008 42.2998C173.172 42.4814 173.254 42.7041 173.254 42.9678C173.254 43.2314 173.172 43.4512 173.008 43.627C172.844 43.8027 172.604 43.8906 172.287 43.8906C171.971 43.8906 171.73 43.8027 171.566 43.627C171.408 43.4512 171.329 43.2314 171.329 42.9678ZM177.464 55H175.838V41.5H177.464V55ZM185.611 52.4775C185.611 52.0381 185.444 51.6982 185.11 51.458C184.782 51.2119 184.205 51.001 183.379 50.8252C182.559 50.6494 181.905 50.4385 181.419 50.1924C180.938 49.9463 180.581 49.6533 180.347 49.3135C180.118 48.9736 180.004 48.5693 180.004 48.1006C180.004 47.3213 180.332 46.6621 180.988 46.123C181.65 45.584 182.494 45.3145 183.52 45.3145C184.598 45.3145 185.471 45.5928 186.139 46.1494C186.812 46.7061 187.149 47.418 187.149 48.2852H185.515C185.515 47.8398 185.324 47.4561 184.943 47.1338C184.568 46.8115 184.094 46.6504 183.52 46.6504C182.928 46.6504 182.465 46.7793 182.131 47.0371C181.797 47.2949 181.63 47.6318 181.63 48.0479C181.63 48.4404 181.785 48.7363 182.096 48.9355C182.406 49.1348 182.966 49.3252 183.774 49.5068C184.589 49.6885 185.248 49.9053 185.752 50.1572C186.256 50.4092 186.628 50.7139 186.868 51.0713C187.114 51.4229 187.237 51.8535 187.237 52.3633C187.237 53.2129 186.897 53.8955 186.218 54.4111C185.538 54.9209 184.656 55.1758 183.572 55.1758C182.811 55.1758 182.137 55.041 181.551 54.7715C180.965 54.502 180.505 54.127 180.171 53.6465C179.843 53.1602 179.679 52.6357 179.679 52.0732H181.305C181.334 52.6182 181.551 53.0518 181.955 53.374C182.365 53.6904 182.904 53.8486 183.572 53.8486C184.188 53.8486 184.68 53.7256 185.049 53.4795C185.424 53.2275 185.611 52.8936 185.611 52.4775Z" fill="white"/>
<path d="M44.4727 42.332H46.207V45.3789H44.4727V49H40.5234V45.3789H33.9258L33.6914 42.9648L40.5234 31.9727V31.9375H44.4727V42.332ZM37.4531 42.332H40.5234V37.082L40.2773 37.4805L37.4531 42.332Z" fill="white"/>
</svg>
