<svg width="226" height="81" viewBox="0 0 226 81" fill="none" xmlns="http://www.w3.org/2000/svg">
<path d="M65.1556 25.5507L40.0009 69.0276L14.9262 25.5046L65.1556 25.5507Z" stroke="white"/>
<path d="M73.8296 20.5678L40.0009 79.0368L6.27967 20.5058L73.8296 20.5678Z" stroke="white"/>
<path d="M96.7188 47.085H91.1729V51.6201H97.6152V53H89.4854V40.2031H97.5273V41.5918H91.1729V45.7051H96.7188V47.085ZM102.651 46.9619L104.761 43.4902H106.659L103.548 48.1924L106.756 53H104.875L102.678 49.4404L100.48 53H98.5908L101.799 48.1924L98.6875 43.4902H100.568L102.651 46.9619ZM112.029 51.8486C112.609 51.8486 113.116 51.6729 113.55 51.3213C113.983 50.9697 114.224 50.5303 114.271 50.0029H115.809C115.779 50.5479 115.592 51.0664 115.246 51.5586C114.9 52.0508 114.438 52.4434 113.857 52.7363C113.283 53.0293 112.674 53.1758 112.029 53.1758C110.734 53.1758 109.703 52.7451 108.936 51.8838C108.174 51.0166 107.793 49.833 107.793 48.333V48.0605C107.793 47.1348 107.963 46.3115 108.303 45.5908C108.643 44.8701 109.129 44.3105 109.762 43.9121C110.4 43.5137 111.153 43.3145 112.021 43.3145C113.087 43.3145 113.972 43.6338 114.675 44.2725C115.384 44.9111 115.762 45.7402 115.809 46.7598H114.271C114.224 46.1445 113.989 45.6406 113.567 45.248C113.151 44.8496 112.636 44.6504 112.021 44.6504C111.194 44.6504 110.553 44.9492 110.096 45.5469C109.645 46.1387 109.419 46.9971 109.419 48.1221V48.4297C109.419 49.5254 109.645 50.3691 110.096 50.9609C110.547 51.5527 111.191 51.8486 112.029 51.8486ZM119.263 44.6416C119.983 43.7568 120.921 43.3145 122.075 43.3145C124.085 43.3145 125.099 44.4482 125.116 46.7158V53H123.49V46.707C123.484 46.0215 123.326 45.5146 123.016 45.1865C122.711 44.8584 122.233 44.6943 121.583 44.6943C121.056 44.6943 120.593 44.835 120.194 45.1162C119.796 45.3975 119.485 45.7666 119.263 46.2236V53H117.637V39.5H119.263V44.6416ZM133.422 53C133.328 52.8125 133.252 52.4785 133.193 51.998C132.438 52.7832 131.535 53.1758 130.486 53.1758C129.549 53.1758 128.778 52.9121 128.175 52.3848C127.577 51.8516 127.278 51.1777 127.278 50.3633C127.278 49.373 127.653 48.6055 128.403 48.0605C129.159 47.5098 130.22 47.2344 131.585 47.2344H133.167V46.4873C133.167 45.9189 132.997 45.4678 132.657 45.1338C132.317 44.7939 131.816 44.624 131.154 44.624C130.574 44.624 130.088 44.7705 129.695 45.0635C129.303 45.3564 129.106 45.7109 129.106 46.127H127.472C127.472 45.6523 127.639 45.1953 127.973 44.7559C128.312 44.3105 128.77 43.959 129.344 43.7012C129.924 43.4434 130.56 43.3145 131.251 43.3145C132.347 43.3145 133.205 43.5898 133.826 44.1406C134.447 44.6855 134.77 45.4385 134.793 46.3994V50.7764C134.793 51.6494 134.904 52.3438 135.127 52.8594V53H133.422ZM130.724 51.7607C131.233 51.7607 131.717 51.6289 132.174 51.3652C132.631 51.1016 132.962 50.7588 133.167 50.3369V48.3857H131.893C129.9 48.3857 128.904 48.9688 128.904 50.1348C128.904 50.6445 129.074 51.043 129.414 51.3301C129.754 51.6172 130.19 51.7607 130.724 51.7607ZM138.88 43.4902L138.933 44.6855C139.659 43.7715 140.608 43.3145 141.78 43.3145C143.79 43.3145 144.804 44.4482 144.821 46.7158V53H143.195V46.707C143.189 46.0215 143.031 45.5146 142.721 45.1865C142.416 44.8584 141.938 44.6943 141.288 44.6943C140.761 44.6943 140.298 44.835 139.899 45.1162C139.501 45.3975 139.19 45.7666 138.968 46.2236V53H137.342V43.4902H138.88ZM146.887 48.166C146.887 46.6836 147.229 45.5059 147.915 44.6328C148.601 43.7539 149.509 43.3145 150.64 43.3145C151.8 43.3145 152.705 43.7246 153.355 44.5449L153.435 43.4902H154.92V52.7715C154.92 54.002 154.554 54.9717 153.821 55.6807C153.095 56.3896 152.116 56.7441 150.886 56.7441C150.2 56.7441 149.529 56.5977 148.873 56.3047C148.217 56.0117 147.716 55.6104 147.37 55.1006L148.214 54.125C148.911 54.9863 149.764 55.417 150.771 55.417C151.562 55.417 152.178 55.1943 152.617 54.749C153.062 54.3037 153.285 53.6768 153.285 52.8682V52.0508C152.635 52.8008 151.747 53.1758 150.622 53.1758C149.509 53.1758 148.606 52.7275 147.915 51.8311C147.229 50.9346 146.887 49.7129 146.887 48.166ZM148.521 48.3506C148.521 49.4229 148.741 50.2666 149.181 50.8818C149.62 51.4912 150.235 51.7959 151.026 51.7959C152.052 51.7959 152.805 51.3301 153.285 50.3984V46.0566C152.787 45.1484 152.04 44.6943 151.044 44.6943C150.253 44.6943 149.635 45.002 149.189 45.6172C148.744 46.2324 148.521 47.1436 148.521 48.3506ZM161.327 53.1758C160.038 53.1758 158.989 52.7539 158.181 51.9102C157.372 51.0605 156.968 49.9268 156.968 48.5088V48.21C156.968 47.2666 157.146 46.4258 157.504 45.6875C157.867 44.9434 158.371 44.3633 159.016 43.9473C159.666 43.5254 160.369 43.3145 161.125 43.3145C162.361 43.3145 163.322 43.7217 164.008 44.5361C164.693 45.3506 165.036 46.5166 165.036 48.0342V48.7109H158.594C158.617 49.6484 158.89 50.4072 159.411 50.9873C159.938 51.5615 160.606 51.8486 161.415 51.8486C161.989 51.8486 162.476 51.7314 162.874 51.4971C163.272 51.2627 163.621 50.9521 163.92 50.5654L164.913 51.3389C164.116 52.5635 162.921 53.1758 161.327 53.1758ZM161.125 44.6504C160.469 44.6504 159.918 44.8906 159.473 45.3711C159.027 45.8457 158.752 46.5137 158.646 47.375H163.41V47.252C163.363 46.4258 163.141 45.7871 162.742 45.3359C162.344 44.8789 161.805 44.6504 161.125 44.6504ZM171.646 53V40.2031H175.258C176.371 40.2031 177.355 40.4492 178.211 40.9414C179.066 41.4336 179.726 42.1338 180.188 43.042C180.657 43.9502 180.895 44.9932 180.9 46.1709V46.9883C180.9 48.1953 180.666 49.2529 180.197 50.1611C179.734 51.0693 179.069 51.7666 178.202 52.2529C177.341 52.7393 176.336 52.9883 175.188 53H171.646ZM173.333 41.5918V51.6201H175.108C176.409 51.6201 177.42 51.2158 178.141 50.4072C178.867 49.5986 179.23 48.4473 179.23 46.9531V46.2061C179.23 44.7529 178.888 43.625 178.202 42.8223C177.522 42.0137 176.556 41.6035 175.302 41.5918H173.333ZM187.149 53.1758C185.86 53.1758 184.812 52.7539 184.003 51.9102C183.194 51.0605 182.79 49.9268 182.79 48.5088V48.21C182.79 47.2666 182.969 46.4258 183.326 45.6875C183.689 44.9434 184.193 44.3633 184.838 43.9473C185.488 43.5254 186.191 43.3145 186.947 43.3145C188.184 43.3145 189.145 43.7217 189.83 44.5361C190.516 45.3506 190.858 46.5166 190.858 48.0342V48.7109H184.416C184.439 49.6484 184.712 50.4072 185.233 50.9873C185.761 51.5615 186.429 51.8486 187.237 51.8486C187.812 51.8486 188.298 51.7314 188.696 51.4971C189.095 51.2627 189.443 50.9521 189.742 50.5654L190.735 51.3389C189.938 52.5635 188.743 53.1758 187.149 53.1758ZM186.947 44.6504C186.291 44.6504 185.74 44.8906 185.295 45.3711C184.85 45.8457 184.574 46.5137 184.469 47.375H189.232V47.252C189.186 46.4258 188.963 45.7871 188.564 45.3359C188.166 44.8789 187.627 44.6504 186.947 44.6504ZM194.954 41.1875V43.4902H196.729V44.7471H194.954V50.6445C194.954 51.0254 195.033 51.3125 195.191 51.5059C195.35 51.6934 195.619 51.7871 196 51.7871C196.188 51.7871 196.445 51.752 196.773 51.6816V53C196.346 53.1172 195.93 53.1758 195.525 53.1758C194.799 53.1758 194.251 52.9561 193.882 52.5166C193.513 52.0771 193.328 51.4531 193.328 50.6445V44.7471H191.597V43.4902H193.328V41.1875H194.954ZM204.508 53C204.414 52.8125 204.338 52.4785 204.279 51.998C203.523 52.7832 202.621 53.1758 201.572 53.1758C200.635 53.1758 199.864 52.9121 199.261 52.3848C198.663 51.8516 198.364 51.1777 198.364 50.3633C198.364 49.373 198.739 48.6055 199.489 48.0605C200.245 47.5098 201.306 47.2344 202.671 47.2344H204.253V46.4873C204.253 45.9189 204.083 45.4678 203.743 45.1338C203.403 44.7939 202.902 44.624 202.24 44.624C201.66 44.624 201.174 44.7705 200.781 45.0635C200.389 45.3564 200.192 45.7109 200.192 46.127H198.558C198.558 45.6523 198.725 45.1953 199.059 44.7559C199.398 44.3105 199.855 43.959 200.43 43.7012C201.01 43.4434 201.646 43.3145 202.337 43.3145C203.433 43.3145 204.291 43.5898 204.912 44.1406C205.533 44.6855 205.855 45.4385 205.879 46.3994V50.7764C205.879 51.6494 205.99 52.3438 206.213 52.8594V53H204.508ZM201.81 51.7607C202.319 51.7607 202.803 51.6289 203.26 51.3652C203.717 51.1016 204.048 50.7588 204.253 50.3369V48.3857H202.979C200.986 48.3857 199.99 48.9688 199.99 50.1348C199.99 50.6445 200.16 51.043 200.5 51.3301C200.84 51.6172 201.276 51.7607 201.81 51.7607ZM210.194 53H208.568V43.4902H210.194V53ZM208.437 40.9678C208.437 40.7041 208.516 40.4814 208.674 40.2998C208.838 40.1182 209.078 40.0273 209.395 40.0273C209.711 40.0273 209.951 40.1182 210.115 40.2998C210.279 40.4814 210.361 40.7041 210.361 40.9678C210.361 41.2314 210.279 41.4512 210.115 41.627C209.951 41.8027 209.711 41.8906 209.395 41.8906C209.078 41.8906 208.838 41.8027 208.674 41.627C208.516 41.4512 208.437 41.2314 208.437 40.9678ZM214.571 53H212.945V39.5H214.571V53ZM222.719 50.4775C222.719 50.0381 222.552 49.6982 222.218 49.458C221.89 49.2119 221.312 49.001 220.486 48.8252C219.666 48.6494 219.013 48.4385 218.526 48.1924C218.046 47.9463 217.688 47.6533 217.454 47.3135C217.226 46.9736 217.111 46.5693 217.111 46.1006C217.111 45.3213 217.439 44.6621 218.096 44.123C218.758 43.584 219.602 43.3145 220.627 43.3145C221.705 43.3145 222.578 43.5928 223.246 44.1494C223.92 44.7061 224.257 45.418 224.257 46.2852H222.622C222.622 45.8398 222.432 45.4561 222.051 45.1338C221.676 44.8115 221.201 44.6504 220.627 44.6504C220.035 44.6504 219.572 44.7793 219.238 45.0371C218.904 45.2949 218.737 45.6318 218.737 46.0479C218.737 46.4404 218.893 46.7363 219.203 46.9355C219.514 47.1348 220.073 47.3252 220.882 47.5068C221.696 47.6885 222.355 47.9053 222.859 48.1572C223.363 48.4092 223.735 48.7139 223.976 49.0713C224.222 49.4229 224.345 49.8535 224.345 50.3633C224.345 51.2129 224.005 51.8955 223.325 52.4111C222.646 52.9209 221.764 53.1758 220.68 53.1758C219.918 53.1758 219.244 53.041 218.658 52.7715C218.072 52.502 217.612 52.127 217.278 51.6465C216.95 51.1602 216.786 50.6357 216.786 50.0732H218.412C218.441 50.6182 218.658 51.0518 219.062 51.374C219.473 51.6904 220.012 51.8486 220.68 51.8486C221.295 51.8486 221.787 51.7256 222.156 51.4795C222.531 51.2275 222.719 50.8936 222.719 50.4775Z" fill="white"/>
<path d="M45.9492 49H34.043V46.4219L39.5273 40.6562C40.8789 39.1172 41.5547 37.8945 41.5547 36.9883C41.5547 36.2539 41.3945 35.6953 41.0742 35.3125C40.7539 34.9297 40.2891 34.7383 39.6797 34.7383C39.0781 34.7383 38.5898 34.9961 38.2148 35.5117C37.8398 36.0195 37.6523 36.6562 37.6523 37.4219H33.6914C33.6914 36.375 33.9531 35.4102 34.4766 34.5273C35 33.6367 35.7266 32.9414 36.6562 32.4414C37.5859 31.9414 38.625 31.6914 39.7734 31.6914C41.6172 31.6914 43.0352 32.1172 44.0273 32.9688C45.0273 33.8203 45.5273 35.043 45.5273 36.6367C45.5273 37.3086 45.4023 37.9648 45.1523 38.6055C44.9023 39.2383 44.5117 39.9062 43.9805 40.6094C43.457 41.3047 42.6094 42.2383 41.4375 43.4102L39.2344 45.9531H45.9492V49Z" fill="white"/>
</svg>
