<svg width="189" height="81" viewBox="0 0 189 81" fill="none" xmlns="http://www.w3.org/2000/svg">
<path d="M65.1556 25.5507L40.0009 69.0276L14.9262 25.5046L65.1556 25.5507Z" fill="white" stroke="white"/>
<path d="M73.8296 20.5678L40.0009 79.0368L6.27967 20.5058L73.8296 20.5678Z" stroke="white"/>
<path d="M96.7188 47.085H91.1729V51.6201H97.6152V53H89.4854V40.2031H97.5273V41.5918H91.1729V45.7051H96.7188V47.085ZM102.651 46.9619L104.761 43.4902H106.659L103.548 48.1924L106.756 53H104.875L102.678 49.4404L100.48 53H98.5908L101.799 48.1924L98.6875 43.4902H100.568L102.651 46.9619ZM110.597 41.1875V43.4902H112.372V44.7471H110.597V50.6445C110.597 51.0254 110.676 51.3125 110.834 51.5059C110.992 51.6934 111.262 51.7871 111.643 51.7871C111.83 51.7871 112.088 51.752 112.416 51.6816V53C111.988 53.1172 111.572 53.1758 111.168 53.1758C110.441 53.1758 109.894 52.9561 109.524 52.5166C109.155 52.0771 108.971 51.4531 108.971 50.6445V44.7471H107.239V43.4902H108.971V41.1875H110.597ZM118.876 44.9492C118.63 44.9082 118.363 44.8877 118.076 44.8877C117.01 44.8877 116.286 45.3418 115.905 46.25V53H114.279V43.4902H115.861L115.888 44.5889C116.421 43.7393 117.177 43.3145 118.155 43.3145C118.472 43.3145 118.712 43.3555 118.876 43.4375V44.9492ZM125.898 53C125.805 52.8125 125.729 52.4785 125.67 51.998C124.914 52.7832 124.012 53.1758 122.963 53.1758C122.025 53.1758 121.255 52.9121 120.651 52.3848C120.054 51.8516 119.755 51.1777 119.755 50.3633C119.755 49.373 120.13 48.6055 120.88 48.0605C121.636 47.5098 122.696 47.2344 124.062 47.2344H125.644V46.4873C125.644 45.9189 125.474 45.4678 125.134 45.1338C124.794 44.7939 124.293 44.624 123.631 44.624C123.051 44.624 122.564 44.7705 122.172 45.0635C121.779 45.3564 121.583 45.7109 121.583 46.127H119.948C119.948 45.6523 120.115 45.1953 120.449 44.7559C120.789 44.3105 121.246 43.959 121.82 43.7012C122.4 43.4434 123.036 43.3145 123.728 43.3145C124.823 43.3145 125.682 43.5898 126.303 44.1406C126.924 44.6855 127.246 45.4385 127.27 46.3994V50.7764C127.27 51.6494 127.381 52.3438 127.604 52.8594V53H125.898ZM123.2 51.7607C123.71 51.7607 124.193 51.6289 124.65 51.3652C125.107 51.1016 125.438 50.7588 125.644 50.3369V48.3857H124.369C122.377 48.3857 121.381 48.9688 121.381 50.1348C121.381 50.6445 121.551 51.043 121.891 51.3301C122.23 51.6172 122.667 51.7607 123.2 51.7607ZM134.538 53V40.2031H138.15C139.264 40.2031 140.248 40.4492 141.104 40.9414C141.959 41.4336 142.618 42.1338 143.081 43.042C143.55 43.9502 143.787 44.9932 143.793 46.1709V46.9883C143.793 48.1953 143.559 49.2529 143.09 50.1611C142.627 51.0693 141.962 51.7666 141.095 52.2529C140.233 52.7393 139.229 52.9883 138.08 53H134.538ZM136.226 41.5918V51.6201H138.001C139.302 51.6201 140.312 51.2158 141.033 50.4072C141.76 49.5986 142.123 48.4473 142.123 46.9531V46.2061C142.123 44.7529 141.78 43.625 141.095 42.8223C140.415 42.0137 139.448 41.6035 138.194 41.5918H136.226ZM150.042 53.1758C148.753 53.1758 147.704 52.7539 146.896 51.9102C146.087 51.0605 145.683 49.9268 145.683 48.5088V48.21C145.683 47.2666 145.861 46.4258 146.219 45.6875C146.582 44.9434 147.086 44.3633 147.73 43.9473C148.381 43.5254 149.084 43.3145 149.84 43.3145C151.076 43.3145 152.037 43.7217 152.723 44.5361C153.408 45.3506 153.751 46.5166 153.751 48.0342V48.7109H147.309C147.332 49.6484 147.604 50.4072 148.126 50.9873C148.653 51.5615 149.321 51.8486 150.13 51.8486C150.704 51.8486 151.19 51.7314 151.589 51.4971C151.987 51.2627 152.336 50.9521 152.635 50.5654L153.628 51.3389C152.831 52.5635 151.636 53.1758 150.042 53.1758ZM149.84 44.6504C149.184 44.6504 148.633 44.8906 148.188 45.3711C147.742 45.8457 147.467 46.5137 147.361 47.375H152.125V47.252C152.078 46.4258 151.855 45.7871 151.457 45.3359C151.059 44.8789 150.52 44.6504 149.84 44.6504ZM157.847 41.1875V43.4902H159.622V44.7471H157.847V50.6445C157.847 51.0254 157.926 51.3125 158.084 51.5059C158.242 51.6934 158.512 51.7871 158.893 51.7871C159.08 51.7871 159.338 51.752 159.666 51.6816V53C159.238 53.1172 158.822 53.1758 158.418 53.1758C157.691 53.1758 157.144 52.9561 156.774 52.5166C156.405 52.0771 156.221 51.4531 156.221 50.6445V44.7471H154.489V43.4902H156.221V41.1875H157.847ZM167.4 53C167.307 52.8125 167.23 52.4785 167.172 51.998C166.416 52.7832 165.514 53.1758 164.465 53.1758C163.527 53.1758 162.757 52.9121 162.153 52.3848C161.556 51.8516 161.257 51.1777 161.257 50.3633C161.257 49.373 161.632 48.6055 162.382 48.0605C163.138 47.5098 164.198 47.2344 165.563 47.2344H167.146V46.4873C167.146 45.9189 166.976 45.4678 166.636 45.1338C166.296 44.7939 165.795 44.624 165.133 44.624C164.553 44.624 164.066 44.7705 163.674 45.0635C163.281 45.3564 163.085 45.7109 163.085 46.127H161.45C161.45 45.6523 161.617 45.1953 161.951 44.7559C162.291 44.3105 162.748 43.959 163.322 43.7012C163.902 43.4434 164.538 43.3145 165.229 43.3145C166.325 43.3145 167.184 43.5898 167.805 44.1406C168.426 44.6855 168.748 45.4385 168.771 46.3994V50.7764C168.771 51.6494 168.883 52.3438 169.105 52.8594V53H167.4ZM164.702 51.7607C165.212 51.7607 165.695 51.6289 166.152 51.3652C166.609 51.1016 166.94 50.7588 167.146 50.3369V48.3857H165.871C163.879 48.3857 162.883 48.9688 162.883 50.1348C162.883 50.6445 163.053 51.043 163.393 51.3301C163.732 51.6172 164.169 51.7607 164.702 51.7607ZM173.087 53H171.461V43.4902H173.087V53ZM171.329 40.9678C171.329 40.7041 171.408 40.4814 171.566 40.2998C171.73 40.1182 171.971 40.0273 172.287 40.0273C172.604 40.0273 172.844 40.1182 173.008 40.2998C173.172 40.4814 173.254 40.7041 173.254 40.9678C173.254 41.2314 173.172 41.4512 173.008 41.627C172.844 41.8027 172.604 41.8906 172.287 41.8906C171.971 41.8906 171.73 41.8027 171.566 41.627C171.408 41.4512 171.329 41.2314 171.329 40.9678ZM177.464 53H175.838V39.5H177.464V53ZM185.611 50.4775C185.611 50.0381 185.444 49.6982 185.11 49.458C184.782 49.2119 184.205 49.001 183.379 48.8252C182.559 48.6494 181.905 48.4385 181.419 48.1924C180.938 47.9463 180.581 47.6533 180.347 47.3135C180.118 46.9736 180.004 46.5693 180.004 46.1006C180.004 45.3213 180.332 44.6621 180.988 44.123C181.65 43.584 182.494 43.3145 183.52 43.3145C184.598 43.3145 185.471 43.5928 186.139 44.1494C186.812 44.7061 187.149 45.418 187.149 46.2852H185.515C185.515 45.8398 185.324 45.4561 184.943 45.1338C184.568 44.8115 184.094 44.6504 183.52 44.6504C182.928 44.6504 182.465 44.7793 182.131 45.0371C181.797 45.2949 181.63 45.6318 181.63 46.0479C181.63 46.4404 181.785 46.7363 182.096 46.9355C182.406 47.1348 182.966 47.3252 183.774 47.5068C184.589 47.6885 185.248 47.9053 185.752 48.1572C186.256 48.4092 186.628 48.7139 186.868 49.0713C187.114 49.4229 187.237 49.8535 187.237 50.3633C187.237 51.2129 186.897 51.8955 186.218 52.4111C185.538 52.9209 184.656 53.1758 183.572 53.1758C182.811 53.1758 182.137 53.041 181.551 52.7715C180.965 52.502 180.505 52.127 180.171 51.6465C179.843 51.1602 179.679 50.6357 179.679 50.0732H181.305C181.334 50.6182 181.551 51.0518 181.955 51.374C182.365 51.6904 182.904 51.8486 183.572 51.8486C184.188 51.8486 184.68 51.7256 185.049 51.4795C185.424 51.2275 185.611 50.8936 185.611 50.4775Z" fill="white"/>
<path d="M44.4727 42.332H46.207V45.3789H44.4727V49H40.5234V45.3789H33.9258L33.6914 42.9648L40.5234 31.9727V31.9375H44.4727V42.332ZM37.4531 42.332H40.5234V37.082L40.2773 37.4805L37.4531 42.332Z" fill="#424242"/>
</svg>
