<svg width="257" height="81" viewBox="0 0 257 81" fill="none" xmlns="http://www.w3.org/2000/svg">
<path d="M65.1556 25.5507L40.0009 69.0276L14.9262 25.5046L65.1556 25.5507Z" fill="white" stroke="white"/>
<path d="M73.8296 20.5678L40.0009 79.0368L6.27967 20.5058L73.8296 20.5678Z" stroke="white"/>
<path d="M91.1729 47.9902V53H89.4854V40.2031H94.2051C95.6055 40.2031 96.7012 40.5605 97.4922 41.2754C98.2891 41.9902 98.6875 42.9365 98.6875 44.1143C98.6875 45.3564 98.2979 46.3145 97.5186 46.9883C96.7451 47.6562 95.6348 47.9902 94.1875 47.9902H91.1729ZM91.1729 46.6104H94.2051C95.1074 46.6104 95.7988 46.3994 96.2793 45.9775C96.7598 45.5498 97 44.9346 97 44.1318C97 43.3701 96.7598 42.7607 96.2793 42.3037C95.7988 41.8467 95.1396 41.6094 94.3018 41.5918H91.1729V46.6104ZM104.409 53.1758C103.12 53.1758 102.071 52.7539 101.263 51.9102C100.454 51.0605 100.05 49.9268 100.05 48.5088V48.21C100.05 47.2666 100.229 46.4258 100.586 45.6875C100.949 44.9434 101.453 44.3633 102.098 43.9473C102.748 43.5254 103.451 43.3145 104.207 43.3145C105.443 43.3145 106.404 43.7217 107.09 44.5361C107.775 45.3506 108.118 46.5166 108.118 48.0342V48.7109H101.676C101.699 49.6484 101.972 50.4072 102.493 50.9873C103.021 51.5615 103.688 51.8486 104.497 51.8486C105.071 51.8486 105.558 51.7314 105.956 51.4971C106.354 51.2627 106.703 50.9521 107.002 50.5654L107.995 51.3389C107.198 52.5635 106.003 53.1758 104.409 53.1758ZM104.207 44.6504C103.551 44.6504 103 44.8906 102.555 45.3711C102.109 45.8457 101.834 46.5137 101.729 47.375H106.492V47.252C106.445 46.4258 106.223 45.7871 105.824 45.3359C105.426 44.8789 104.887 44.6504 104.207 44.6504ZM114.604 44.9492C114.358 44.9082 114.092 44.8877 113.805 44.8877C112.738 44.8877 112.015 45.3418 111.634 46.25V53H110.008V43.4902H111.59L111.616 44.5889C112.149 43.7393 112.905 43.3145 113.884 43.3145C114.2 43.3145 114.44 43.3555 114.604 43.4375V44.9492ZM121.645 50.4775C121.645 50.0381 121.478 49.6982 121.144 49.458C120.815 49.2119 120.238 49.001 119.412 48.8252C118.592 48.6494 117.938 48.4385 117.452 48.1924C116.972 47.9463 116.614 47.6533 116.38 47.3135C116.151 46.9736 116.037 46.5693 116.037 46.1006C116.037 45.3213 116.365 44.6621 117.021 44.123C117.684 43.584 118.527 43.3145 119.553 43.3145C120.631 43.3145 121.504 43.5928 122.172 44.1494C122.846 44.7061 123.183 45.418 123.183 46.2852H121.548C121.548 45.8398 121.357 45.4561 120.977 45.1338C120.602 44.8115 120.127 44.6504 119.553 44.6504C118.961 44.6504 118.498 44.7793 118.164 45.0371C117.83 45.2949 117.663 45.6318 117.663 46.0479C117.663 46.4404 117.818 46.7363 118.129 46.9355C118.439 47.1348 118.999 47.3252 119.808 47.5068C120.622 47.6885 121.281 47.9053 121.785 48.1572C122.289 48.4092 122.661 48.7139 122.901 49.0713C123.147 49.4229 123.271 49.8535 123.271 50.3633C123.271 51.2129 122.931 51.8955 122.251 52.4111C121.571 52.9209 120.689 53.1758 119.605 53.1758C118.844 53.1758 118.17 53.041 117.584 52.7715C116.998 52.502 116.538 52.127 116.204 51.6465C115.876 51.1602 115.712 50.6357 115.712 50.0732H117.338C117.367 50.6182 117.584 51.0518 117.988 51.374C118.398 51.6904 118.938 51.8486 119.605 51.8486C120.221 51.8486 120.713 51.7256 121.082 51.4795C121.457 51.2275 121.645 50.8936 121.645 50.4775ZM124.958 48.1572C124.958 47.2256 125.14 46.3877 125.503 45.6436C125.872 44.8994 126.382 44.3252 127.032 43.9209C127.688 43.5166 128.436 43.3145 129.273 43.3145C130.568 43.3145 131.614 43.7627 132.411 44.6592C133.214 45.5557 133.615 46.748 133.615 48.2363V48.3506C133.615 49.2764 133.437 50.1084 133.079 50.8467C132.728 51.5791 132.221 52.1504 131.559 52.5605C130.902 52.9707 130.146 53.1758 129.291 53.1758C128.002 53.1758 126.956 52.7275 126.153 51.8311C125.356 50.9346 124.958 49.748 124.958 48.2715V48.1572ZM126.593 48.3506C126.593 49.4053 126.836 50.252 127.322 50.8906C127.814 51.5293 128.471 51.8486 129.291 51.8486C130.117 51.8486 130.773 51.5264 131.26 50.8818C131.746 50.2314 131.989 49.3232 131.989 48.1572C131.989 47.1143 131.74 46.2705 131.242 45.626C130.75 44.9756 130.094 44.6504 129.273 44.6504C128.471 44.6504 127.823 44.9697 127.331 45.6084C126.839 46.2471 126.593 47.1611 126.593 48.3506ZM137.192 43.4902L137.245 44.6855C137.972 43.7715 138.921 43.3145 140.093 43.3145C142.103 43.3145 143.116 44.4482 143.134 46.7158V53H141.508V46.707C141.502 46.0215 141.344 45.5146 141.033 45.1865C140.729 44.8584 140.251 44.6943 139.601 44.6943C139.073 44.6943 138.61 44.835 138.212 45.1162C137.813 45.3975 137.503 45.7666 137.28 46.2236V53H135.654V43.4902H137.192ZM151.457 53C151.363 52.8125 151.287 52.4785 151.229 51.998C150.473 52.7832 149.57 53.1758 148.521 53.1758C147.584 53.1758 146.813 52.9121 146.21 52.3848C145.612 51.8516 145.313 51.1777 145.313 50.3633C145.313 49.373 145.688 48.6055 146.438 48.0605C147.194 47.5098 148.255 47.2344 149.62 47.2344H151.202V46.4873C151.202 45.9189 151.032 45.4678 150.692 45.1338C150.353 44.7939 149.852 44.624 149.189 44.624C148.609 44.624 148.123 44.7705 147.73 45.0635C147.338 45.3564 147.142 45.7109 147.142 46.127H145.507C145.507 45.6523 145.674 45.1953 146.008 44.7559C146.348 44.3105 146.805 43.959 147.379 43.7012C147.959 43.4434 148.595 43.3145 149.286 43.3145C150.382 43.3145 151.24 43.5898 151.861 44.1406C152.482 44.6855 152.805 45.4385 152.828 46.3994V50.7764C152.828 51.6494 152.939 52.3438 153.162 52.8594V53H151.457ZM148.759 51.7607C149.269 51.7607 149.752 51.6289 150.209 51.3652C150.666 51.1016 150.997 50.7588 151.202 50.3369V48.3857H149.928C147.936 48.3857 146.939 48.9688 146.939 50.1348C146.939 50.6445 147.109 51.043 147.449 51.3301C147.789 51.6172 148.226 51.7607 148.759 51.7607ZM157.144 53H155.518V39.5H157.144V53ZM166.284 53H164.597V40.2031H166.284V53ZM170.661 43.4902L170.714 44.6855C171.44 43.7715 172.39 43.3145 173.562 43.3145C175.571 43.3145 176.585 44.4482 176.603 46.7158V53H174.977V46.707C174.971 46.0215 174.812 45.5146 174.502 45.1865C174.197 44.8584 173.72 44.6943 173.069 44.6943C172.542 44.6943 172.079 44.835 171.681 45.1162C171.282 45.3975 170.972 45.7666 170.749 46.2236V53H169.123V43.4902H170.661ZM179.854 53V44.7471H178.352V43.4902H179.854V42.5146C179.854 41.4951 180.127 40.707 180.672 40.1504C181.217 39.5938 181.987 39.3154 182.983 39.3154C183.358 39.3154 183.73 39.3652 184.1 39.4648L184.012 40.7832C183.736 40.7305 183.443 40.7041 183.133 40.7041C182.605 40.7041 182.198 40.8594 181.911 41.1699C181.624 41.4746 181.48 41.9141 181.48 42.4883V43.4902H183.511V44.7471H181.48V53H179.854ZM184.882 48.1572C184.882 47.2256 185.063 46.3877 185.427 45.6436C185.796 44.8994 186.306 44.3252 186.956 43.9209C187.612 43.5166 188.359 43.3145 189.197 43.3145C190.492 43.3145 191.538 43.7627 192.335 44.6592C193.138 45.5557 193.539 46.748 193.539 48.2363V48.3506C193.539 49.2764 193.36 50.1084 193.003 50.8467C192.651 51.5791 192.145 52.1504 191.482 52.5605C190.826 52.9707 190.07 53.1758 189.215 53.1758C187.926 53.1758 186.88 52.7275 186.077 51.8311C185.28 50.9346 184.882 49.748 184.882 48.2715V48.1572ZM186.517 48.3506C186.517 49.4053 186.76 50.252 187.246 50.8906C187.738 51.5293 188.395 51.8486 189.215 51.8486C190.041 51.8486 190.697 51.5264 191.184 50.8818C191.67 50.2314 191.913 49.3232 191.913 48.1572C191.913 47.1143 191.664 46.2705 191.166 45.626C190.674 44.9756 190.018 44.6504 189.197 44.6504C188.395 44.6504 187.747 44.9697 187.255 45.6084C186.763 46.2471 186.517 47.1611 186.517 48.3506ZM200.175 44.9492C199.929 44.9082 199.662 44.8877 199.375 44.8877C198.309 44.8877 197.585 45.3418 197.204 46.25V53H195.578V43.4902H197.16L197.187 44.5889C197.72 43.7393 198.476 43.3145 199.454 43.3145C199.771 43.3145 200.011 43.3555 200.175 43.4375V44.9492ZM203.207 43.4902L203.251 44.5449C203.948 43.7246 204.889 43.3145 206.072 43.3145C207.402 43.3145 208.308 43.8242 208.788 44.8438C209.104 44.3867 209.515 44.0176 210.019 43.7363C210.528 43.4551 211.129 43.3145 211.82 43.3145C213.906 43.3145 214.967 44.4189 215.002 46.6279V53H213.376V46.7246C213.376 46.0449 213.221 45.5381 212.91 45.2041C212.6 44.8643 212.078 44.6943 211.346 44.6943C210.742 44.6943 210.241 44.876 209.843 45.2393C209.444 45.5967 209.213 46.0801 209.148 46.6895V53H207.514V46.7686C207.514 45.3857 206.837 44.6943 205.483 44.6943C204.417 44.6943 203.688 45.1484 203.295 46.0566V53H201.669V43.4902H203.207ZM223.334 53C223.24 52.8125 223.164 52.4785 223.105 51.998C222.35 52.7832 221.447 53.1758 220.398 53.1758C219.461 53.1758 218.69 52.9121 218.087 52.3848C217.489 51.8516 217.19 51.1777 217.19 50.3633C217.19 49.373 217.565 48.6055 218.315 48.0605C219.071 47.5098 220.132 47.2344 221.497 47.2344H223.079V46.4873C223.079 45.9189 222.909 45.4678 222.569 45.1338C222.229 44.7939 221.729 44.624 221.066 44.624C220.486 44.624 220 44.7705 219.607 45.0635C219.215 45.3564 219.019 45.7109 219.019 46.127H217.384C217.384 45.6523 217.551 45.1953 217.885 44.7559C218.225 44.3105 218.682 43.959 219.256 43.7012C219.836 43.4434 220.472 43.3145 221.163 43.3145C222.259 43.3145 223.117 43.5898 223.738 44.1406C224.359 44.6855 224.682 45.4385 224.705 46.3994V50.7764C224.705 51.6494 224.816 52.3438 225.039 52.8594V53H223.334ZM220.636 51.7607C221.146 51.7607 221.629 51.6289 222.086 51.3652C222.543 51.1016 222.874 50.7588 223.079 50.3369V48.3857H221.805C219.812 48.3857 218.816 48.9688 218.816 50.1348C218.816 50.6445 218.986 51.043 219.326 51.3301C219.666 51.6172 220.103 51.7607 220.636 51.7607ZM229.46 41.1875V43.4902H231.235V44.7471H229.46V50.6445C229.46 51.0254 229.539 51.3125 229.697 51.5059C229.855 51.6934 230.125 51.7871 230.506 51.7871C230.693 51.7871 230.951 51.752 231.279 51.6816V53C230.852 53.1172 230.436 53.1758 230.031 53.1758C229.305 53.1758 228.757 52.9561 228.388 52.5166C228.019 52.0771 227.834 51.4531 227.834 50.6445V44.7471H226.103V43.4902H227.834V41.1875H229.46ZM234.909 53H233.283V43.4902H234.909V53ZM233.151 40.9678C233.151 40.7041 233.23 40.4814 233.389 40.2998C233.553 40.1182 233.793 40.0273 234.109 40.0273C234.426 40.0273 234.666 40.1182 234.83 40.2998C234.994 40.4814 235.076 40.7041 235.076 40.9678C235.076 41.2314 234.994 41.4512 234.83 41.627C234.666 41.8027 234.426 41.8906 234.109 41.8906C233.793 41.8906 233.553 41.8027 233.389 41.627C233.23 41.4512 233.151 41.2314 233.151 40.9678ZM237.089 48.1572C237.089 47.2256 237.271 46.3877 237.634 45.6436C238.003 44.8994 238.513 44.3252 239.163 43.9209C239.819 43.5166 240.566 43.3145 241.404 43.3145C242.699 43.3145 243.745 43.7627 244.542 44.6592C245.345 45.5557 245.746 46.748 245.746 48.2363V48.3506C245.746 49.2764 245.567 50.1084 245.21 50.8467C244.858 51.5791 244.352 52.1504 243.689 52.5605C243.033 52.9707 242.277 53.1758 241.422 53.1758C240.133 53.1758 239.087 52.7275 238.284 51.8311C237.487 50.9346 237.089 49.748 237.089 48.2715V48.1572ZM238.724 48.3506C238.724 49.4053 238.967 50.252 239.453 50.8906C239.945 51.5293 240.602 51.8486 241.422 51.8486C242.248 51.8486 242.904 51.5264 243.391 50.8818C243.877 50.2314 244.12 49.3232 244.12 48.1572C244.12 47.1143 243.871 46.2705 243.373 45.626C242.881 44.9756 242.225 44.6504 241.404 44.6504C240.602 44.6504 239.954 44.9697 239.462 45.6084C238.97 46.2471 238.724 47.1611 238.724 48.3506ZM249.323 43.4902L249.376 44.6855C250.103 43.7715 251.052 43.3145 252.224 43.3145C254.233 43.3145 255.247 44.4482 255.265 46.7158V53H253.639V46.707C253.633 46.0215 253.475 45.5146 253.164 45.1865C252.859 44.8584 252.382 44.6943 251.731 44.6943C251.204 44.6943 250.741 44.835 250.343 45.1162C249.944 45.3975 249.634 45.7666 249.411 46.2236V53H247.785V43.4902H249.323Z" fill="white"/>
<path d="M42.7969 49H38.8359V36.3906L34.9453 37.5273V34.5273L42.4336 31.9375H42.7969V49Z" fill="#424242"/>
</svg>
