<svg width="174" height="81" viewBox="0 0 174 81" fill="none" xmlns="http://www.w3.org/2000/svg">
<path d="M65.1556 25.5507L40.0009 69.0276L14.9262 25.5046L65.1556 25.5507Z" fill="white" stroke="white"/>
<path d="M73.8296 20.5678L40.0009 79.0368L6.27967 20.5058L73.8296 20.5678Z" stroke="white"/>
<path d="M98.8984 48.9395C98.7402 50.293 98.2393 51.3389 97.3955 52.0771C96.5576 52.8096 95.4414 53.1758 94.0469 53.1758C92.5352 53.1758 91.3223 52.6338 90.4082 51.5498C89.5 50.4658 89.0459 49.0156 89.0459 47.1992V45.9688C89.0459 44.7793 89.2568 43.7334 89.6787 42.8311C90.1064 41.9287 90.71 41.2373 91.4893 40.7568C92.2686 40.2705 93.1709 40.0273 94.1963 40.0273C95.5557 40.0273 96.6455 40.4082 97.4658 41.1699C98.2861 41.9258 98.7637 42.9746 98.8984 44.3164H97.2021C97.0557 43.2969 96.7363 42.5586 96.2441 42.1016C95.7578 41.6445 95.0752 41.416 94.1963 41.416C93.1182 41.416 92.2715 41.8145 91.6562 42.6113C91.0469 43.4082 90.7422 44.542 90.7422 46.0127V47.252C90.7422 48.6406 91.0322 49.7451 91.6123 50.5654C92.1924 51.3857 93.0039 51.7959 94.0469 51.7959C94.9844 51.7959 95.7021 51.585 96.2002 51.1631C96.7041 50.7354 97.0381 49.9941 97.2021 48.9395H98.8984ZM106.826 52.0596C106.193 52.8037 105.265 53.1758 104.04 53.1758C103.026 53.1758 102.253 52.8828 101.72 52.2969C101.192 51.7051 100.926 50.832 100.92 49.6777V43.4902H102.546V49.6338C102.546 51.0752 103.132 51.7959 104.304 51.7959C105.546 51.7959 106.372 51.333 106.782 50.4072V43.4902H108.408V53H106.861L106.826 52.0596ZM115.483 44.9492C115.237 44.9082 114.971 44.8877 114.684 44.8877C113.617 44.8877 112.894 45.3418 112.513 46.25V53H110.887V43.4902H112.469L112.495 44.5889C113.028 43.7393 113.784 43.3145 114.763 43.3145C115.079 43.3145 115.319 43.3555 115.483 43.4375V44.9492ZM121.583 44.9492C121.337 44.9082 121.07 44.8877 120.783 44.8877C119.717 44.8877 118.993 45.3418 118.612 46.25V53H116.986V43.4902H118.568L118.595 44.5889C119.128 43.7393 119.884 43.3145 120.862 43.3145C121.179 43.3145 121.419 43.3555 121.583 43.4375V44.9492ZM126.856 53.1758C125.567 53.1758 124.519 52.7539 123.71 51.9102C122.901 51.0605 122.497 49.9268 122.497 48.5088V48.21C122.497 47.2666 122.676 46.4258 123.033 45.6875C123.396 44.9434 123.9 44.3633 124.545 43.9473C125.195 43.5254 125.898 43.3145 126.654 43.3145C127.891 43.3145 128.852 43.7217 129.537 44.5361C130.223 45.3506 130.565 46.5166 130.565 48.0342V48.7109H124.123C124.146 49.6484 124.419 50.4072 124.94 50.9873C125.468 51.5615 126.136 51.8486 126.944 51.8486C127.519 51.8486 128.005 51.7314 128.403 51.4971C128.802 51.2627 129.15 50.9521 129.449 50.5654L130.442 51.3389C129.646 52.5635 128.45 53.1758 126.856 53.1758ZM126.654 44.6504C125.998 44.6504 125.447 44.8906 125.002 45.3711C124.557 45.8457 124.281 46.5137 124.176 47.375H128.939V47.252C128.893 46.4258 128.67 45.7871 128.271 45.3359C127.873 44.8789 127.334 44.6504 126.654 44.6504ZM133.993 43.4902L134.046 44.6855C134.772 43.7715 135.722 43.3145 136.894 43.3145C138.903 43.3145 139.917 44.4482 139.935 46.7158V53H138.309V46.707C138.303 46.0215 138.145 45.5146 137.834 45.1865C137.529 44.8584 137.052 44.6943 136.401 44.6943C135.874 44.6943 135.411 44.835 135.013 45.1162C134.614 45.3975 134.304 45.7666 134.081 46.2236V53H132.455V43.4902H133.993ZM146.201 51.8486C146.781 51.8486 147.288 51.6729 147.722 51.3213C148.155 50.9697 148.396 50.5303 148.442 50.0029H149.98C149.951 50.5479 149.764 51.0664 149.418 51.5586C149.072 52.0508 148.609 52.4434 148.029 52.7363C147.455 53.0293 146.846 53.1758 146.201 53.1758C144.906 53.1758 143.875 52.7451 143.107 51.8838C142.346 51.0166 141.965 49.833 141.965 48.333V48.0605C141.965 47.1348 142.135 46.3115 142.475 45.5908C142.814 44.8701 143.301 44.3105 143.934 43.9121C144.572 43.5137 145.325 43.3145 146.192 43.3145C147.259 43.3145 148.144 43.6338 148.847 44.2725C149.556 44.9111 149.934 45.7402 149.98 46.7598H148.442C148.396 46.1445 148.161 45.6406 147.739 45.248C147.323 44.8496 146.808 44.6504 146.192 44.6504C145.366 44.6504 144.725 44.9492 144.268 45.5469C143.816 46.1387 143.591 46.9971 143.591 48.1221V48.4297C143.591 49.5254 143.816 50.3691 144.268 50.9609C144.719 51.5527 145.363 51.8486 146.201 51.8486ZM153.575 53H151.949V43.4902H153.575V53ZM151.817 40.9678C151.817 40.7041 151.896 40.4814 152.055 40.2998C152.219 40.1182 152.459 40.0273 152.775 40.0273C153.092 40.0273 153.332 40.1182 153.496 40.2998C153.66 40.4814 153.742 40.7041 153.742 40.9678C153.742 41.2314 153.66 41.4512 153.496 41.627C153.332 41.8027 153.092 41.8906 152.775 41.8906C152.459 41.8906 152.219 41.8027 152.055 41.627C151.896 41.4512 151.817 41.2314 151.817 40.9678ZM160.132 53.1758C158.843 53.1758 157.794 52.7539 156.985 51.9102C156.177 51.0605 155.772 49.9268 155.772 48.5088V48.21C155.772 47.2666 155.951 46.4258 156.309 45.6875C156.672 44.9434 157.176 44.3633 157.82 43.9473C158.471 43.5254 159.174 43.3145 159.93 43.3145C161.166 43.3145 162.127 43.7217 162.812 44.5361C163.498 45.3506 163.841 46.5166 163.841 48.0342V48.7109H157.398C157.422 49.6484 157.694 50.4072 158.216 50.9873C158.743 51.5615 159.411 51.8486 160.22 51.8486C160.794 51.8486 161.28 51.7314 161.679 51.4971C162.077 51.2627 162.426 50.9521 162.725 50.5654L163.718 51.3389C162.921 52.5635 161.726 53.1758 160.132 53.1758ZM159.93 44.6504C159.273 44.6504 158.723 44.8906 158.277 45.3711C157.832 45.8457 157.557 46.5137 157.451 47.375H162.215V47.252C162.168 46.4258 161.945 45.7871 161.547 45.3359C161.148 44.8789 160.609 44.6504 159.93 44.6504ZM171.268 50.4775C171.268 50.0381 171.101 49.6982 170.767 49.458C170.438 49.2119 169.861 49.001 169.035 48.8252C168.215 48.6494 167.562 48.4385 167.075 48.1924C166.595 47.9463 166.237 47.6533 166.003 47.3135C165.774 46.9736 165.66 46.5693 165.66 46.1006C165.66 45.3213 165.988 44.6621 166.645 44.123C167.307 43.584 168.15 43.3145 169.176 43.3145C170.254 43.3145 171.127 43.5928 171.795 44.1494C172.469 44.7061 172.806 45.418 172.806 46.2852H171.171C171.171 45.8398 170.98 45.4561 170.6 45.1338C170.225 44.8115 169.75 44.6504 169.176 44.6504C168.584 44.6504 168.121 44.7793 167.787 45.0371C167.453 45.2949 167.286 45.6318 167.286 46.0479C167.286 46.4404 167.441 46.7363 167.752 46.9355C168.062 47.1348 168.622 47.3252 169.431 47.5068C170.245 47.6885 170.904 47.9053 171.408 48.1572C171.912 48.4092 172.284 48.7139 172.524 49.0713C172.771 49.4229 172.894 49.8535 172.894 50.3633C172.894 51.2129 172.554 51.8955 171.874 52.4111C171.194 52.9209 170.312 53.1758 169.229 53.1758C168.467 53.1758 167.793 53.041 167.207 52.7715C166.621 52.502 166.161 52.127 165.827 51.6465C165.499 51.1602 165.335 50.6357 165.335 50.0732H166.961C166.99 50.6182 167.207 51.0518 167.611 51.374C168.021 51.6904 168.561 51.8486 169.229 51.8486C169.844 51.8486 170.336 51.7256 170.705 51.4795C171.08 51.2275 171.268 50.8936 171.268 50.4775Z" fill="white"/>
<path d="M37.6523 38.8164H39.5156C40.9922 38.8164 41.7305 38.0938 41.7305 36.6484C41.7305 36.0859 41.5547 35.6289 41.2031 35.2773C40.8516 34.918 40.3555 34.7383 39.7148 34.7383C39.1914 34.7383 38.7344 34.8906 38.3438 35.1953C37.9609 35.5 37.7695 35.8789 37.7695 36.332H33.8203C33.8203 35.4336 34.0703 34.6328 34.5703 33.9297C35.0703 33.2266 35.7617 32.6797 36.6445 32.2891C37.5352 31.8906 38.5117 31.6914 39.5742 31.6914C41.4727 31.6914 42.9648 32.125 44.0508 32.9922C45.1367 33.8594 45.6797 35.0508 45.6797 36.5664C45.6797 37.3008 45.4531 37.9961 45 38.6523C44.5547 39.3008 43.9023 39.8281 43.043 40.2344C43.9492 40.5625 44.6602 41.0625 45.1758 41.7344C45.6914 42.3984 45.9492 43.2227 45.9492 44.207C45.9492 45.7305 45.3633 46.9492 44.1914 47.8633C43.0195 48.7773 41.4805 49.2344 39.5742 49.2344C38.457 49.2344 37.418 49.0234 36.457 48.6016C35.5039 48.1719 34.7812 47.582 34.2891 46.832C33.7969 46.0742 33.5508 45.2148 33.5508 44.2539H37.5234C37.5234 44.7773 37.7344 45.2305 38.1562 45.6133C38.5781 45.9961 39.0977 46.1875 39.7148 46.1875C40.4102 46.1875 40.9648 45.9961 41.3789 45.6133C41.793 45.2227 42 44.7266 42 44.125C42 43.2656 41.7852 42.6562 41.3555 42.2969C40.9258 41.9375 40.332 41.7578 39.5742 41.7578H37.6523V38.8164Z" fill="#424242"/>
</svg>
