<svg width="174" height="81" viewBox="0 0 174 81" fill="none" xmlns="http://www.w3.org/2000/svg">
<path d="M65.1556 25.5507L40.0009 69.0276L14.9262 25.5046L65.1556 25.5507Z" stroke="white"/>
<path d="M73.8296 20.5678L40.0009 79.0368L6.27967 20.5058L73.8296 20.5678Z" stroke="white"/>
<path d="M98.8984 50.9395C98.7402 52.293 98.2393 53.3389 97.3955 54.0771C96.5576 54.8096 95.4414 55.1758 94.0469 55.1758C92.5352 55.1758 91.3223 54.6338 90.4082 53.5498C89.5 52.4658 89.0459 51.0156 89.0459 49.1992V47.9688C89.0459 46.7793 89.2568 45.7334 89.6787 44.8311C90.1064 43.9287 90.71 43.2373 91.4893 42.7568C92.2686 42.2705 93.1709 42.0273 94.1963 42.0273C95.5557 42.0273 96.6455 42.4082 97.4658 43.1699C98.2861 43.9258 98.7637 44.9746 98.8984 46.3164H97.2021C97.0557 45.2969 96.7363 44.5586 96.2441 44.1016C95.7578 43.6445 95.0752 43.416 94.1963 43.416C93.1182 43.416 92.2715 43.8145 91.6562 44.6113C91.0469 45.4082 90.7422 46.542 90.7422 48.0127V49.252C90.7422 50.6406 91.0322 51.7451 91.6123 52.5654C92.1924 53.3857 93.0039 53.7959 94.0469 53.7959C94.9844 53.7959 95.7021 53.585 96.2002 53.1631C96.7041 52.7354 97.0381 51.9941 97.2021 50.9395H98.8984ZM106.826 54.0596C106.193 54.8037 105.265 55.1758 104.04 55.1758C103.026 55.1758 102.253 54.8828 101.72 54.2969C101.192 53.7051 100.926 52.832 100.92 51.6777V45.4902H102.546V51.6338C102.546 53.0752 103.132 53.7959 104.304 53.7959C105.546 53.7959 106.372 53.333 106.782 52.4072V45.4902H108.408V55H106.861L106.826 54.0596ZM115.483 46.9492C115.237 46.9082 114.971 46.8877 114.684 46.8877C113.617 46.8877 112.894 47.3418 112.513 48.25V55H110.887V45.4902H112.469L112.495 46.5889C113.028 45.7393 113.784 45.3145 114.763 45.3145C115.079 45.3145 115.319 45.3555 115.483 45.4375V46.9492ZM121.583 46.9492C121.337 46.9082 121.07 46.8877 120.783 46.8877C119.717 46.8877 118.993 47.3418 118.612 48.25V55H116.986V45.4902H118.568L118.595 46.5889C119.128 45.7393 119.884 45.3145 120.862 45.3145C121.179 45.3145 121.419 45.3555 121.583 45.4375V46.9492ZM126.856 55.1758C125.567 55.1758 124.519 54.7539 123.71 53.9102C122.901 53.0605 122.497 51.9268 122.497 50.5088V50.21C122.497 49.2666 122.676 48.4258 123.033 47.6875C123.396 46.9434 123.9 46.3633 124.545 45.9473C125.195 45.5254 125.898 45.3145 126.654 45.3145C127.891 45.3145 128.852 45.7217 129.537 46.5361C130.223 47.3506 130.565 48.5166 130.565 50.0342V50.7109H124.123C124.146 51.6484 124.419 52.4072 124.94 52.9873C125.468 53.5615 126.136 53.8486 126.944 53.8486C127.519 53.8486 128.005 53.7314 128.403 53.4971C128.802 53.2627 129.15 52.9521 129.449 52.5654L130.442 53.3389C129.646 54.5635 128.45 55.1758 126.856 55.1758ZM126.654 46.6504C125.998 46.6504 125.447 46.8906 125.002 47.3711C124.557 47.8457 124.281 48.5137 124.176 49.375H128.939V49.252C128.893 48.4258 128.67 47.7871 128.271 47.3359C127.873 46.8789 127.334 46.6504 126.654 46.6504ZM133.993 45.4902L134.046 46.6855C134.772 45.7715 135.722 45.3145 136.894 45.3145C138.903 45.3145 139.917 46.4482 139.935 48.7158V55H138.309V48.707C138.303 48.0215 138.145 47.5146 137.834 47.1865C137.529 46.8584 137.052 46.6943 136.401 46.6943C135.874 46.6943 135.411 46.835 135.013 47.1162C134.614 47.3975 134.304 47.7666 134.081 48.2236V55H132.455V45.4902H133.993ZM146.201 53.8486C146.781 53.8486 147.288 53.6729 147.722 53.3213C148.155 52.9697 148.396 52.5303 148.442 52.0029H149.98C149.951 52.5479 149.764 53.0664 149.418 53.5586C149.072 54.0508 148.609 54.4434 148.029 54.7363C147.455 55.0293 146.846 55.1758 146.201 55.1758C144.906 55.1758 143.875 54.7451 143.107 53.8838C142.346 53.0166 141.965 51.833 141.965 50.333V50.0605C141.965 49.1348 142.135 48.3115 142.475 47.5908C142.814 46.8701 143.301 46.3105 143.934 45.9121C144.572 45.5137 145.325 45.3145 146.192 45.3145C147.259 45.3145 148.144 45.6338 148.847 46.2725C149.556 46.9111 149.934 47.7402 149.98 48.7598H148.442C148.396 48.1445 148.161 47.6406 147.739 47.248C147.323 46.8496 146.808 46.6504 146.192 46.6504C145.366 46.6504 144.725 46.9492 144.268 47.5469C143.816 48.1387 143.591 48.9971 143.591 50.1221V50.4297C143.591 51.5254 143.816 52.3691 144.268 52.9609C144.719 53.5527 145.363 53.8486 146.201 53.8486ZM153.575 55H151.949V45.4902H153.575V55ZM151.817 42.9678C151.817 42.7041 151.896 42.4814 152.055 42.2998C152.219 42.1182 152.459 42.0273 152.775 42.0273C153.092 42.0273 153.332 42.1182 153.496 42.2998C153.66 42.4814 153.742 42.7041 153.742 42.9678C153.742 43.2314 153.66 43.4512 153.496 43.627C153.332 43.8027 153.092 43.8906 152.775 43.8906C152.459 43.8906 152.219 43.8027 152.055 43.627C151.896 43.4512 151.817 43.2314 151.817 42.9678ZM160.132 55.1758C158.843 55.1758 157.794 54.7539 156.985 53.9102C156.177 53.0605 155.772 51.9268 155.772 50.5088V50.21C155.772 49.2666 155.951 48.4258 156.309 47.6875C156.672 46.9434 157.176 46.3633 157.82 45.9473C158.471 45.5254 159.174 45.3145 159.93 45.3145C161.166 45.3145 162.127 45.7217 162.812 46.5361C163.498 47.3506 163.841 48.5166 163.841 50.0342V50.7109H157.398C157.422 51.6484 157.694 52.4072 158.216 52.9873C158.743 53.5615 159.411 53.8486 160.22 53.8486C160.794 53.8486 161.28 53.7314 161.679 53.4971C162.077 53.2627 162.426 52.9521 162.725 52.5654L163.718 53.3389C162.921 54.5635 161.726 55.1758 160.132 55.1758ZM159.93 46.6504C159.273 46.6504 158.723 46.8906 158.277 47.3711C157.832 47.8457 157.557 48.5137 157.451 49.375H162.215V49.252C162.168 48.4258 161.945 47.7871 161.547 47.3359C161.148 46.8789 160.609 46.6504 159.93 46.6504ZM171.268 52.4775C171.268 52.0381 171.101 51.6982 170.767 51.458C170.438 51.2119 169.861 51.001 169.035 50.8252C168.215 50.6494 167.562 50.4385 167.075 50.1924C166.595 49.9463 166.237 49.6533 166.003 49.3135C165.774 48.9736 165.66 48.5693 165.66 48.1006C165.66 47.3213 165.988 46.6621 166.645 46.123C167.307 45.584 168.15 45.3145 169.176 45.3145C170.254 45.3145 171.127 45.5928 171.795 46.1494C172.469 46.7061 172.806 47.418 172.806 48.2852H171.171C171.171 47.8398 170.98 47.4561 170.6 47.1338C170.225 46.8115 169.75 46.6504 169.176 46.6504C168.584 46.6504 168.121 46.7793 167.787 47.0371C167.453 47.2949 167.286 47.6318 167.286 48.0479C167.286 48.4404 167.441 48.7363 167.752 48.9355C168.062 49.1348 168.622 49.3252 169.431 49.5068C170.245 49.6885 170.904 49.9053 171.408 50.1572C171.912 50.4092 172.284 50.7139 172.524 51.0713C172.771 51.4229 172.894 51.8535 172.894 52.3633C172.894 53.2129 172.554 53.8955 171.874 54.4111C171.194 54.9209 170.312 55.1758 169.229 55.1758C168.467 55.1758 167.793 55.041 167.207 54.7715C166.621 54.502 166.161 54.127 165.827 53.6465C165.499 53.1602 165.335 52.6357 165.335 52.0732H166.961C166.99 52.6182 167.207 53.0518 167.611 53.374C168.021 53.6904 168.561 53.8486 169.229 53.8486C169.844 53.8486 170.336 53.7256 170.705 53.4795C171.08 53.2275 171.268 52.8936 171.268 52.4775Z" fill="white"/>
<path d="M37.6523 38.8164H39.5156C40.9922 38.8164 41.7305 38.0938 41.7305 36.6484C41.7305 36.0859 41.5547 35.6289 41.2031 35.2773C40.8516 34.918 40.3555 34.7383 39.7148 34.7383C39.1914 34.7383 38.7344 34.8906 38.3438 35.1953C37.9609 35.5 37.7695 35.8789 37.7695 36.332H33.8203C33.8203 35.4336 34.0703 34.6328 34.5703 33.9297C35.0703 33.2266 35.7617 32.6797 36.6445 32.2891C37.5352 31.8906 38.5117 31.6914 39.5742 31.6914C41.4727 31.6914 42.9648 32.125 44.0508 32.9922C45.1367 33.8594 45.6797 35.0508 45.6797 36.5664C45.6797 37.3008 45.4531 37.9961 45 38.6523C44.5547 39.3008 43.9023 39.8281 43.043 40.2344C43.9492 40.5625 44.6602 41.0625 45.1758 41.7344C45.6914 42.3984 45.9492 43.2227 45.9492 44.207C45.9492 45.7305 45.3633 46.9492 44.1914 47.8633C43.0195 48.7773 41.4805 49.2344 39.5742 49.2344C38.457 49.2344 37.418 49.0234 36.457 48.6016C35.5039 48.1719 34.7812 47.582 34.2891 46.832C33.7969 46.0742 33.5508 45.2148 33.5508 44.2539H37.5234C37.5234 44.7773 37.7344 45.2305 38.1562 45.6133C38.5781 45.9961 39.0977 46.1875 39.7148 46.1875C40.4102 46.1875 40.9648 45.9961 41.3789 45.6133C41.793 45.2227 42 44.7266 42 44.125C42 43.2656 41.7852 42.6562 41.3555 42.2969C40.9258 41.9375 40.332 41.7578 39.5742 41.7578H37.6523V38.8164Z" fill="white"/>
</svg>
